<mxfile host="app.diagrams.net" modified="2022-02-25T03:21:46.799Z" agent="5.0 (Macintosh; Intel Mac OS X 10_15_7) AppleWebKit/537.36 (KHTML, like Gecko) Chrome/98.0.4758.109 Safari/537.36" etag="U6yRs_ZCva35d2sQYhdG" version="16.6.3" type="github">
  <diagram id="hZ9IWrKWcuuQGVlS07cC" name="Page-1">
    <mxGraphModel dx="926" dy="493" grid="0" gridSize="10" guides="1" tooltips="1" connect="1" arrows="1" fold="1" page="1" pageScale="1" pageWidth="1169" pageHeight="827" math="0" shadow="0">
      <root>
        <mxCell id="0" />
        <mxCell id="1" parent="0" />
        <mxCell id="FfZbVTpRwgVf4kVA53Ig-2" value="" style="rounded=1;whiteSpace=wrap;html=1;fillColor=none;" parent="1" vertex="1">
          <mxGeometry x="160" y="159" width="530" height="180" as="geometry" />
        </mxCell>
        <mxCell id="PTWSFziW6dz5ljy78JqX-1" value="" style="rounded=1;whiteSpace=wrap;html=1;fillColor=none;dashed=1;strokeColor=#FF9933;strokeWidth=1;" parent="1" vertex="1">
          <mxGeometry x="300" y="164" width="380" height="50" as="geometry" />
        </mxCell>
        <mxCell id="FfZbVTpRwgVf4kVA53Ig-15" value="" style="rounded=1;whiteSpace=wrap;html=1;fillColor=none;" parent="1" vertex="1">
          <mxGeometry x="160" y="359" width="530" height="50" as="geometry" />
        </mxCell>
        <mxCell id="FfZbVTpRwgVf4kVA53Ig-4" style="edgeStyle=orthogonalEdgeStyle;rounded=0;orthogonalLoop=1;jettySize=auto;html=1;exitX=0.5;exitY=1;exitDx=0;exitDy=0;" parent="1" edge="1">
          <mxGeometry relative="1" as="geometry">
            <mxPoint x="360" y="209" as="sourcePoint" />
            <mxPoint x="360" y="209" as="targetPoint" />
          </mxGeometry>
        </mxCell>
        <mxCell id="FfZbVTpRwgVf4kVA53Ig-5" value="数据上报模版管理" style="rounded=1;whiteSpace=wrap;html=1;fillColor=#f5f5f5;fontColor=#333333;strokeColor=#666666;" parent="1" vertex="1">
          <mxGeometry x="180" y="169" width="100" height="40" as="geometry" />
        </mxCell>
        <mxCell id="FfZbVTpRwgVf4kVA53Ig-7" value="业务上报数据查询" style="rounded=1;whiteSpace=wrap;html=1;fillColor=#f5f5f5;fontColor=#333333;strokeColor=#666666;" parent="1" vertex="1">
          <mxGeometry x="310" y="229" width="100" height="40" as="geometry" />
        </mxCell>
        <mxCell id="FfZbVTpRwgVf4kVA53Ig-9" value="Dchat消息订阅" style="rounded=1;whiteSpace=wrap;html=1;fillColor=#dae8fc;strokeColor=#6c8ebf;" parent="1" vertex="1">
          <mxGeometry x="570" y="169" width="100" height="40" as="geometry" />
        </mxCell>
        <mxCell id="FfZbVTpRwgVf4kVA53Ig-10" value="Dchat消息发送" style="rounded=1;whiteSpace=wrap;html=1;fillColor=#f5f5f5;fontColor=#333333;strokeColor=#666666;" parent="1" vertex="1">
          <mxGeometry x="570" y="229" width="100" height="40" as="geometry" />
        </mxCell>
        <mxCell id="FfZbVTpRwgVf4kVA53Ig-11" value="触发告警数据查询" style="rounded=1;whiteSpace=wrap;html=1;fillColor=#f5f5f5;fontColor=#333333;strokeColor=#666666;" parent="1" vertex="1">
          <mxGeometry x="440" y="229" width="100" height="40" as="geometry" />
        </mxCell>
        <mxCell id="FfZbVTpRwgVf4kVA53Ig-12" value="WEB客户端" style="rounded=1;whiteSpace=wrap;html=1;fillColor=none;" parent="1" vertex="1">
          <mxGeometry x="160" y="79" width="530" height="60" as="geometry" />
        </mxCell>
        <mxCell id="FfZbVTpRwgVf4kVA53Ig-13" value="交互层" style="text;html=1;strokeColor=none;fillColor=none;align=center;verticalAlign=middle;whiteSpace=wrap;rounded=0;fontSize=14;" parent="1" vertex="1">
          <mxGeometry x="80" y="94" width="60" height="30" as="geometry" />
        </mxCell>
        <mxCell id="FfZbVTpRwgVf4kVA53Ig-14" value="业务层" style="text;html=1;strokeColor=none;fillColor=none;align=center;verticalAlign=middle;whiteSpace=wrap;rounded=0;fontSize=14;" parent="1" vertex="1">
          <mxGeometry x="80" y="234" width="60" height="30" as="geometry" />
        </mxCell>
        <mxCell id="FfZbVTpRwgVf4kVA53Ig-16" value="数据层" style="text;html=1;strokeColor=none;fillColor=none;align=center;verticalAlign=middle;whiteSpace=wrap;rounded=0;fontSize=14;" parent="1" vertex="1">
          <mxGeometry x="80" y="369" width="60" height="30" as="geometry" />
        </mxCell>
        <mxCell id="FfZbVTpRwgVf4kVA53Ig-17" value="carrier管理后台" style="text;html=1;strokeColor=none;fillColor=none;align=center;verticalAlign=middle;whiteSpace=wrap;rounded=0;fontSize=16;" parent="1" vertex="1">
          <mxGeometry x="330" y="39" width="180" height="30" as="geometry" />
        </mxCell>
        <mxCell id="FfZbVTpRwgVf4kVA53Ig-18" value="告警配置" style="rounded=1;whiteSpace=wrap;html=1;fillColor=#dae8fc;strokeColor=#6c8ebf;" parent="1" vertex="1">
          <mxGeometry x="440" y="169" width="100" height="40" as="geometry" />
        </mxCell>
        <mxCell id="FfZbVTpRwgVf4kVA53Ig-19" style="edgeStyle=orthogonalEdgeStyle;rounded=0;orthogonalLoop=1;jettySize=auto;html=1;exitX=0.5;exitY=1;exitDx=0;exitDy=0;fontSize=16;" parent="1" source="FfZbVTpRwgVf4kVA53Ig-15" target="FfZbVTpRwgVf4kVA53Ig-15" edge="1">
          <mxGeometry relative="1" as="geometry" />
        </mxCell>
        <mxCell id="FfZbVTpRwgVf4kVA53Ig-21" value="字段配置" style="rounded=1;whiteSpace=wrap;html=1;fillColor=#dae8fc;strokeColor=#6c8ebf;" parent="1" vertex="1">
          <mxGeometry x="310" y="169" width="100" height="40" as="geometry" />
        </mxCell>
        <mxCell id="FfZbVTpRwgVf4kVA53Ig-22" value="SDK jar包生成" style="rounded=1;whiteSpace=wrap;html=1;fillColor=#f5f5f5;fontColor=#333333;strokeColor=#666666;" parent="1" vertex="1">
          <mxGeometry x="180" y="229" width="100" height="40" as="geometry" />
        </mxCell>
        <mxCell id="FfZbVTpRwgVf4kVA53Ig-25" value="图表生成" style="rounded=1;whiteSpace=wrap;html=1;fillColor=#f5f5f5;fontColor=#333333;strokeColor=#666666;" parent="1" vertex="1">
          <mxGeometry x="180" y="289" width="100" height="40" as="geometry" />
        </mxCell>
        <mxCell id="FfZbVTpRwgVf4kVA53Ig-26" value="MongoDB" style="rounded=1;whiteSpace=wrap;html=1;fontSize=16;fillColor=#f5f5f5;strokeColor=#666666;fontColor=#333333;" parent="1" vertex="1">
          <mxGeometry x="200" y="366.5" width="120" height="35" as="geometry" />
        </mxCell>
        <mxCell id="FfZbVTpRwgVf4kVA53Ig-27" value="Redis" style="rounded=1;whiteSpace=wrap;html=1;fontSize=16;fillColor=#f5f5f5;strokeColor=#666666;fontColor=#333333;" parent="1" vertex="1">
          <mxGeometry x="360" y="366.5" width="120" height="35" as="geometry" />
        </mxCell>
        <mxCell id="tdQgKblvZQpAUzVxakY6-1" value="DDMQ" style="rounded=1;whiteSpace=wrap;html=1;fontSize=16;fillColor=#f5f5f5;strokeColor=#666666;fontColor=#333333;" vertex="1" parent="1">
          <mxGeometry x="520" y="366.5" width="120" height="35" as="geometry" />
        </mxCell>
      </root>
    </mxGraphModel>
  </diagram>
</mxfile>
